<svg width="26" height="26" viewBox="0 0 26 26" fill="none" xmlns="http://www.w3.org/2000/svg">
<path d="M24.3316 8.20081L13.3866 2.29123C13.1451 2.16123 12.8558 2.16123 12.6142 2.29123L1.67147 8.20081C1.27714 8.41423 1.12981 8.90714 1.34322 9.30256C1.48947 9.57339 1.77006 9.72831 2.05822 9.72831C2.18822 9.72831 2.32147 9.69581 2.44389 9.63081L3.32681 9.15414L5.09156 21.6266C5.32339 22.9428 6.50856 23.8604 7.97106 23.8604H18.0266C19.4912 23.8604 20.6753 22.9417 20.9115 21.5995L22.673 9.15198L23.5591 9.63081C23.9535 9.83989 24.4475 9.69581 24.6609 9.30148C24.8732 8.90823 24.7259 8.41531 24.3316 8.20081V8.20081ZM19.3071 21.3449C19.1911 22.0014 18.5455 22.2354 18.0287 22.2354H7.97322C7.45322 22.2354 6.80864 22.0014 6.69706 21.3709L4.85322 8.33081L12.9999 3.93031L21.1487 8.32864L19.3071 21.3449V21.3449Z" fill="#6E767D"/>
<path d="M8.90479 13.1994C8.90479 15.457 10.741 17.2944 12.9998 17.2944C15.2585 17.2944 17.0948 15.457 17.0948 13.1994C17.0948 10.9417 15.2585 9.10437 12.9998 9.10437C10.741 9.10437 8.90479 10.9417 8.90479 13.1994ZM15.4698 13.1994C15.4698 14.5622 14.3626 15.6694 12.9998 15.6694C11.637 15.6694 10.5298 14.5622 10.5298 13.1994C10.5298 11.8365 11.637 10.7294 12.9998 10.7294C14.3626 10.7294 15.4698 11.8365 15.4698 13.1994Z" fill="#6E767D"/>
</svg>
